PathFileType	4	(X/Y/Z)	/Users/itak/Documents/Research/Walk-IL/dataset/trc/00536_00009.trc
DataRate	CameraRate	NumFrames	NumMarkers	Units	OrigDataRate	OrigDataStartFrame	OrigNumFrames
100.000000	100.000000	4	53	mm	100.000000	194	776
Frame#	Time	RPSI			LPSI			L3			STRN			T10			C7			CLAV			RBAK			LBAK			LSHO			LUPA			LAEL			LAOL			LWTS			LWPS			LFRA			LHPS			LHTS			RSHO			RUPA			RAEL			RAOL			RWTS			RWPS			RFRA			RIFD			RHTS			RHPS			RBHD			LFHD			RFHD			LBHD			LHIP			RHIP			RASI			LASI			LKNE			LTHI			LANK			LTIP			LTOE			LMT1			LMT5			LHEE			RKNE			RTHI			RANK			RTIP			RTOE			RMT1			RMT5			RHEE			LIFD			
		X1	Y1	Z1	X2	Y2	Z2	X3	Y3	Z3	X4	Y4	Z4	X5	Y5	Z5	X6	Y6	Z6	X7	Y7	Z7	X8	Y8	Z8	X9	Y9	Z9	X10	Y10	Z10	X11	Y11	Z11	X12	Y12	Z12	X13	Y13	Z13	X14	Y14	Z14	X15	Y15	Z15	X16	Y16	Z16	X17	Y17	Z17	X18	Y18	Z18	X19	Y19	Z19	X20	Y20	Z20	X21	Y21	Z21	X22	Y22	Z22	X23	Y23	Z23	X24	Y24	Z24	X25	Y25	Z25	X26	Y26	Z26	X27	Y27	Z27	X28	Y28	Z28	X29	Y29	Z29	X30	Y30	Z30	X31	Y31	Z31	X32	Y32	Z32	X33	Y33	Z33	X34	Y34	Z34	X35	Y35	Z35	X36	Y36	Z36	X37	Y37	Z37	X38	Y38	Z38	X39	Y39	Z39	X40	Y40	Z40	X41	Y41	Z41	X42	Y42	Z42	X43	Y43	Z43	X44	Y44	Z44	X45	Y45	Z45	X46	Y46	Z46	X47	Y47	Z47	X48	Y48	Z48	X49	Y49	Z49	X50	Y50	Z50	X51	Y51	Z51	X52	Y52	Z52	X53	Y53	Z53	

195	1.94	-1272.645874023438	1009.93798828125	432.77685546875	-1264.444458007812	1008.790710449219	299.5188598632812	-1263.073120117188	1109.51171875	359.5672912597656	-1027.33642578125	1288.896118164062	362.5917358398438	-1272.506958007812	1233.988891601562	358.3575744628906	-1215.59814453125	1505.580444335938	373.9729614257812	-1043.3662109375	1400.384399414062	365.2410888671875	-1290.87060546875	1382.995727539062	462.1310424804688	-1247.330322265625	1454.227783203125	278.79150390625	-1143.895385742188	1475.898315429688	200.8875427246094	-1148.614624023438	1350.235473632812	119.1484146118164	-1120.966064453125	1127.342041015625	96.75762939453125	-1208.781494140625	1116.6318359375	145.0620269775391	-1026.99560546875	884.321044921875	139.6434020996094	-1072.359130859375	862.4686889648438	67.37809753417969	-1097.331420898438	1041.344848632812	89.61269378662109	-1062.774536132812	802.109375	75.35990142822266	-1010.0341796875	807.8723754882812	121.1309051513672	-1156.723754882812	1464.877075195312	530.2999267578125	-1174.990600585938	1400.160278320312	598.5462646484375	-1179.341796875	1109.368286132812	644.0270385742188	-1232.743774414062	1092.0751953125	615.5208129882812	-1044.125366210938	889.8067626953125	609.2131958007812	-1090.894287109375	869.3718872070312	675.074462890625	-1168.484497070312	1053.93701171875	651.2501220703125	-1029.5927734375	716.944580078125	615.51318359375	-1013.764953613281	799.3729248046875	627.0564575195312	-1071.131225585938	795.6315307617188	674.962890625	-1138.909057617188	1681.094604492188	440.9026489257812	-979.6109619140625	1701.737182617188	308.93994140625	-1000.08837890625	1700.8779296875	451.326416015625	-1108.266357421875	1680.359741210938	277.6447143554688	-1131.57666015625	921.3566284179688	176.3382568359375	-1145.82568359375	948.3944091796875	558.8541870117188	-1060.192993164062	978.9252319335938	498.5545349121094	-1058.293701171875	953.1599731445312	223.9046020507812	-1145.544799804688	484.1333312988281	267.112548828125	-1129.5732421875	644.9722290039062	217.9281005859375	-1250.519165039062	27.79543685913086	318.78271484375	-1223.412841796875	242.9169921875	287.5327453613281	-1037.079711914062	36.3059196472168	365.9010925292969	-1107.147827148438	41.81569671630859	403.9591369628906	-1130.042846679688	30.42943382263184	296.314208984375	-1316.134521484375	34.21993637084961	377.7174682617188	-1037.162475585938	513.426513671875	543.571533203125	-1084.198974609375	800.99658203125	566.75341796875	-1160.100341796875	49.82516860961914	559.2874145507812	-1044.324462890625	365.3294067382812	544.0648193359375	-941.840087890625	57.3021240234375	530.215576171875	-1002.577026367188	49.04293823242188	485.8099975585938	-1030.84619140625	51.92573165893555	585.5132446289062	-1212.024536132812	39.5020751953125	501.7204284667969	-1019.731628417969	713.95361328125	137.983154296875	
196	1.95	-1271.426025390625	1009.788879394531	432.6550903320312	-1263.098510742188	1008.596008300781	299.3911743164062	-1261.819702148438	1109.39013671875	359.3850708007812	-1025.87158203125	1288.735107421875	362.591064453125	-1271.092041015625	1233.889038085938	358.0807189941406	-1214.137939453125	1505.447387695312	373.7772216796875	-1041.908325195312	1400.311889648438	365.2236328125	-1289.544921875	1382.885986328125	461.8316955566406	-1245.79052734375	1454.116333007812	278.5487976074219	-1142.273315429688	1475.7490234375	200.7330017089844	-1146.933959960938	1350.076904296875	119.0027160644531	-1119.244506835938	1127.158935546875	96.74713897705078	-1207.143432617188	1116.470458984375	144.8655548095703	-1025.097534179688	884.3077392578125	139.9974975585938	-1070.4111328125	862.3436279296875	67.60946655273438	-1095.512817382812	1041.216064453125	89.67444610595703	-1060.599609375	802.0037231445312	75.74765777587891	-1008.159851074219	807.9246826171875	121.2885513305664	-1155.431762695312	1464.68896484375	530.1455688476562	-1173.828002929688	1399.97021484375	598.3607177734375	-1178.5029296875	1109.169921875	643.6549682617188	-1231.9541015625	1091.946899414062	615.1056518554688	-1043.549926757812	889.3560180664062	609.1146850585938	-1090.5966796875	869.0453491210938	674.9639892578125	-1167.833740234375	1053.727416992188	650.952880859375	-1029.626220703125	716.4300537109375	615.5214233398438	-1013.578002929688	798.8118896484375	627.0252075195312	-1071.109008789062	795.267578125	674.9656372070312	-1137.38427734375	1680.879028320312	440.9820861816406	-978.1980590820312	1701.697387695312	308.9128112792969	-998.5714721679688	1700.68994140625	451.34130859375	-1106.860595703125	1680.271606445312	277.7254943847656	-1129.758422851562	920.9512329101562	176.578125	-1144.705810546875	948.4169921875	558.8929443359375	-1059.142700195312	978.9281616210938	498.6187438964844	-1056.894653320312	953.0003051757812	223.8588104248047	-1144.6748046875	484.0502014160156	267.2014465332031	-1128.298583984375	644.712646484375	218.1641235351562	-1250.517822265625	27.87713623046875	318.8515625	-1222.971923828125	242.8975830078125	287.6912841796875	-1037.045043945312	36.27866363525391	365.8963012695312	-1107.22607421875	41.70741653442383	404.0227661132812	-1130.03955078125	30.43656730651855	296.3216857910156	-1316.114379882812	34.31057357788086	377.79541015625	-1033.80224609375	513.8639526367188	543.3030395507812	-1082.534057617188	801.169921875	566.8466186523438	-1150.920776367188	48.81074905395508	558.5625	-1039.337646484375	365.8331298828125	543.7053833007812	-932.6533203125	58.15865325927734	529.71484375	-993.3038940429688	49.50372314453125	485.2536315917969	-1021.695861816406	52.06549835205078	584.91796875	-1202.664794921875	38.10060119628906	500.9090881347656	-1017.824768066406	714.008544921875	138.1358337402344	
197	1.96	-1270.203979492188	1009.649047851562	432.5339660644531	-1261.720336914062	1008.402404785156	299.2522277832031	-1260.553955078125	1109.274047851562	359.2101745605469	-1024.400024414062	1288.592407226562	362.627197265625	-1269.676025390625	1233.790771484375	357.8304748535156	-1212.640625	1505.31201171875	373.6028137207031	-1040.42041015625	1400.204223632812	365.2234802246094	-1288.187622070312	1382.787719726562	461.5493469238281	-1244.220336914062	1453.991455078125	278.3359375	-1140.615112304688	1475.576538085938	200.60888671875	-1145.22802734375	1349.902587890625	118.8808746337891	-1117.4990234375	1126.973266601562	96.75621795654297	-1205.484375	1116.300170898438	144.6736297607422	-1023.15087890625	884.26904296875	140.3936920166016	-1068.343017578125	862.220947265625	67.8905029296875	-1093.656372070312	1041.086547851562	89.75975036621094	-1058.33642578125	801.8974609375	76.16883087158203	-1006.276611328125	807.9978637695312	121.4342498779297	-1154.117065429688	1464.510498046875	530.0113525390625	-1172.645874023438	1399.78173828125	598.19287109375	-1177.638793945312	1108.98779296875	643.2900390625	-1231.159545898438	1091.8408203125	614.7197875976562	-1042.963134765625	888.923095703125	609.0223999023438	-1090.275146484375	868.729736328125	674.8688354492188	-1167.162963867188	1053.53857421875	650.678955078125	-1029.629516601562	715.9421997070312	615.5154418945312	-1013.378601074219	798.2882080078125	626.931884765625	-1071.031005859375	794.919677734375	674.944580078125	-1135.826049804688	1680.677490234375	441.0632019042969	-976.75	1701.631713867188	308.8841247558594	-997.0128784179688	1700.511962890625	451.3463745117188	-1105.421630859375	1680.167236328125	277.8037719726562	-1127.928955078125	920.536865234375	176.8113403320312	-1143.669677734375	948.4474487304688	559.0247802734375	-1058.138916015625	978.92919921875	498.768310546875	-1055.4208984375	952.8385620117188	223.8579406738281	-1143.798950195312	483.9783630371094	267.2977600097656	-1126.972778320312	644.4500122070312	218.4223327636719	-1250.522216796875	27.95816040039062	318.9166259765625	-1222.466796875	242.8843078613281	287.8446960449219	-1037.018310546875	36.25890350341797	365.8880004882812	-1107.296875	41.58892822265625	404.0979309082031	-1130.031127929688	30.44567489624023	296.3311767578125	-1316.1025390625	34.39422988891602	377.8733215332031	-1030.417846679688	514.3338623046875	543.095703125	-1080.8837890625	801.3582763671875	567.0077514648438	-1141.627807617188	47.88055801391602	557.8116455078125	-1034.278686523438	366.3712158203125	543.36474609375	-923.3554077148438	58.96247863769531	529.1177368164062	-983.9276123046875	49.95242691040039	484.6188049316406	-1012.4248046875	52.20255279541016	584.2554931640625	-1193.21728515625	36.85422897338867	500.0977478027344	-1015.908935546875	714.0844116210938	138.2765960693359	
198	1.97	-1268.976928710938	1009.514221191406	432.4094543457031	-1260.309326171875	1008.214904785156	299.1016845703125	-1259.265502929688	1109.163940429688	359.0396118164062	-1022.926391601562	1288.455932617188	362.7012939453125	-1268.256958007812	1233.693115234375	357.6075134277344	-1211.107666015625	1505.175415039062	373.4474792480469	-1038.895874023438	1400.051513671875	365.2402038574219	-1286.80078125	1382.699951171875	461.2831115722656	-1242.617919921875	1453.852661132812	278.1502685546875	-1138.920166015625	1475.384155273438	200.5171508789062	-1143.493286132812	1349.714721679688	118.7856521606445	-1115.732543945312	1126.792846679688	96.77838134765625	-1203.809204101562	1116.120239257812	144.4854278564453	-1021.155212402344	884.2200317382812	140.8339385986328	-1066.13427734375	862.0986328125	68.22881317138672	-1091.760986328125	1040.957397460938	89.86768341064453	-1055.981689453125	801.7960205078125	76.61920166015625	-1004.378234863281	808.0822143554688	121.5864181518555	-1152.78515625	1464.343872070312	529.8984375	-1171.450073242188	1399.596313476562	598.0433349609375	-1176.764282226562	1108.824340820312	642.9428100585938	-1230.364379882812	1091.756591796875	614.3651123046875	-1042.3837890625	888.5162963867188	608.9486083984375	-1089.922729492188	868.4302368164062	674.7866821289062	-1166.473754882812	1053.368408203125	650.4253540039062	-1029.574340820312	715.4905395507812	615.490234375	-1013.144165039062	797.8153076171875	626.804931640625	-1070.8798828125	794.5906982421875	674.8919067382812	-1134.234375	1680.492431640625	441.147216796875	-975.2647705078125	1701.532836914062	308.85595703125	-995.410888671875	1700.3408203125	451.3414916992188	-1103.94970703125	1680.048461914062	277.8794860839844	-1126.10693359375	920.114990234375	177.0373687744141	-1142.675659179688	948.4777221679688	559.2076416015625	-1057.156127929688	978.9290771484375	498.9789123535156	-1053.884643554688	952.6641235351562	223.9070587158203	-1142.923950195312	483.9071960449219	267.404296875	-1125.64501953125	644.2216796875	218.6771240234375	-1250.529541015625	28.03285026550293	318.9737854003906	-1221.911865234375	242.8720703125	287.986572265625	-1037.002685546875	36.24655151367188	365.8787841796875	-1107.337036132812	41.47475814819336	404.1783752441406	-1130.016967773438	30.45553207397461	296.3430786132812	-1316.099731445312	34.47134017944336	377.9502868652344	-1027.01611328125	514.8397827148438	542.9478149414062	-1079.23828125	801.5592651367188	567.2297973632812	-1132.241577148438	47.03839874267578	557.0387573242188	-1029.1494140625	366.9417724609375	543.0430908203125	-913.9742431640625	59.73733901977539	528.4383544921875	-974.4752197265625	50.40394592285156	483.9165649414062	-1003.0595703125	52.34516525268555	583.5343627929688	-1183.70849609375	35.76386642456055	499.2962951660156	-1013.97802734375	714.1714477539062	138.4238433837891	
